<svg width="394" height="394" viewBox="0 0 394 394" fill="none" xmlns="http://www.w3.org/2000/svg">
<path fill-rule="evenodd" clip-rule="evenodd" d="M109.667 87.8333C109.667 64.6711 118.868 42.4575 135.246 26.0793C151.624 9.70116 173.838 0.5 197 0.5C220.162 0.5 242.376 9.70116 258.754 26.0793C275.132 42.4575 284.333 64.6711 284.333 87.8333C284.333 110.996 275.132 133.209 258.754 149.587C242.376 165.966 220.162 175.167 197 175.167C173.838 175.167 151.624 165.966 135.246 149.587C118.868 133.209 109.667 110.996 109.667 87.8333ZM109.667 218.833C80.7139 218.833 52.9469 230.335 32.4742 250.808C12.0015 271.28 0.5 299.047 0.5 328C0.5 345.372 7.40088 362.032 19.6845 374.316C31.9681 386.599 48.6283 393.5 66 393.5H328C345.372 393.5 362.032 386.599 374.316 374.316C386.599 362.032 393.5 345.372 393.5 328C393.5 299.047 381.999 271.28 361.526 250.808C341.053 230.335 313.286 218.833 284.333 218.833H109.667Z" fill="white"/>
</svg>
